HIERARCHY
ROOT Hips
{
 OFFSET 0.000000 0.000000 0.000000
 CHANNELS 6 Xposition Yposition Zposition Yrotation Xrotation Zrotation
 JOINT Chest
 {
  OFFSET 0.000000 9.585900 0.002600
  CHANNELS 3 Yrotation Xrotation Zrotation
  JOINT Chest2
  {
   OFFSET 0.000000 9.601200 -0.005300
   CHANNELS 3 Yrotation Xrotation Zrotation
   JOINT Chest3
   {
    OFFSET 0.000000 9.561800 0.000000
    CHANNELS 3 Yrotation Xrotation Zrotation
    JOINT Chest4
    {
     OFFSET 0.000000 9.552100 0.000000
     CHANNELS 3 Yrotation Xrotation Zrotation
     JOINT Neck
     {
      OFFSET 0.000000 14.453000 0.000000
      CHANNELS 3 Yrotation Xrotation Zrotation
      JOINT Head
      {
       OFFSET 0.000000 8.936500 -0.011300
       CHANNELS 3 Yrotation Xrotation Zrotation
       End Site
       {
        OFFSET 0.000000 17.073600 -0.006000
       }
      }
     }
     JOINT RightCollar
     {
      OFFSET -2.921100 9.558500 0.000000
      CHANNELS 3 Yrotation Xrotation Zrotation
      JOINT RightShoulder
      {
       OFFSET -13.519700 0.000000 0.000000
       CHANNELS 3 Yrotation Xrotation Zrotation
       JOINT RightElbow
       {
        OFFSET 0.000000 -29.696600 0.000000
        CHANNELS 3 Yrotation Xrotation Zrotation
        JOINT RightWrist
        {
         OFFSET 0.000000 -24.004700 0.000000
         CHANNELS 3 Yrotation Xrotation Zrotation
         End Site
         {
          OFFSET 0.000000 -17.728500 0.000000
         }
        }
       }
      }
     }
     JOINT LeftCollar
     {
      OFFSET 2.921100 9.558500 0.000000
      CHANNELS 3 Yrotation Xrotation Zrotation
      JOINT LeftShoulder
      {
       OFFSET 13.519700 0.000000 0.000000
       CHANNELS 3 Yrotation Xrotation Zrotation
       JOINT LeftElbow
       {
        OFFSET 0.000000 -29.696600 0.000000
        CHANNELS 3 Yrotation Xrotation Zrotation
        JOINT LeftWrist
        {
         OFFSET 0.000000 -24.004700 0.000000
         CHANNELS 3 Yrotation Xrotation Zrotation
         End Site
         {
          OFFSET 0.000000 -17.728500 0.000000
         }
        }
       }
      }
     }
    }
   }
  }
 }
 JOINT RightHip
 {
  OFFSET -7.771700 -0.012900 -0.001300
  CHANNELS 3 Yrotation Xrotation Zrotation
  JOINT RightKnee
  {
   OFFSET 0.000000 -40.869800 0.001200
   CHANNELS 3 Yrotation Xrotation Zrotation
   JOINT RightAnkle
   {
    OFFSET 0.000000 -39.717900 0.002100
    CHANNELS 3 Yrotation Xrotation Zrotation
    JOINT RightToe
    {
     OFFSET 0.000000 -4.965400 11.033500
     CHANNELS 3 Yrotation Xrotation Zrotation
     End Site
     {
      OFFSET 0.000000 -1.423100 5.872300
     }
    }
   }
  }
 }
 JOINT LeftHip
 {
  OFFSET 7.771700 -0.012900 -0.001300
  CHANNELS 3 Yrotation Xrotation Zrotation
  JOINT LeftKnee
  {
   OFFSET 0.000000 -40.869800 0.001200
   CHANNELS 3 Yrotation Xrotation Zrotation
   JOINT LeftAnkle
   {
    OFFSET 0.000000 -39.717900 0.002100
    CHANNELS 3 Yrotation Xrotation Zrotation
    JOINT LeftToe
    {
     OFFSET 0.000000 -4.965400 11.033500
     CHANNELS 3 Yrotation Xrotation Zrotation
     End Site
     {
      OFFSET 0.000000 -1.423100 5.872300
     }
    }
   }
  }
 }
}
MOTION
Frames: 15
Frame Time: 0.008333
0.000000 85.388000 0.000000 0.000000 -5.767877 0.000000 0.000000 11.653817 0.000000 0.000000 -5.885947 0.000000 0.000000 -0.000000 0.000000 0.000000 -0.000000 0.000000 0.000000 12.528835 0.000000 0.000000 0.711642 0.000000 0.000000 -0.000000 0.000000 0.000000 0.000000 -90.000000 0.000000 -2.309062 0.000000 0.000000 2.309062 0.000000 0.000000 -0.000000 0.000000 0.000000 -0.000000 90.000000 0.000000 -2.309062 0.000000 0.000000 2.309062 0.000000 0.000000 8.520406 0.000000 0.000000 1.905762 0.000000 -0.000000 -4.658285 0.000000 0.000000 -0.000000 0.000000 0.000000 8.520406 0.000000 0.000000 1.905762 0.000000 -0.000000 -4.658285 0.000000 0.000000 -0.000000 0.000000
-242.819663 60.472796 -74.907215 164.082717 -21.169258 3.250872 5.118165 19.963387 0.292868 0.615488 2.575825 -0.040438 1.007107 4.215611 -0.051738 4.191096 17.212572 0.269217 -3.106756 15.788606 1.225202 -3.558045 -9.098052 2.001181 16.191568 -0.700614 -10.702080 44.320327 -57.902110 -62.398148 74.711729 -66.898694 -86.472169 6.774637 -26.536242 -61.065787 -9.241453 0.667854 -2.828124 -9.160664 -21.239602 12.998315 -77.497704 -51.865286 64.935340 -9.946757 6.262167 19.306932 -0.087095 -48.852766 0.291848 -24.527323 69.959816 -23.566336 -2.355057 -4.074490 -1.176006 0.147606 -0.450219 0.416485 13.237933 -47.200403 -7.900891 25.527063 63.542501 26.062589 -15.755293 -15.625466 1.818534 0.106765 0.308196 -0.056103
-242.821129 60.443260 -74.941627 164.166745 -21.063547 3.250185 5.030532 20.025391 0.346130 0.599430 2.574159 -0.033124 0.981187 4.213353 -0.040247 4.092630 17.221467 0.305652 -3.017017 15.650800 1.042265 -3.317816 -9.170995 1.806201 16.389806 -0.857217 -10.961803 45.236976 -57.226933 -63.991534 66.812739 -68.238701 -78.638661 4.992157 -25.855592 -60.978366 -9.132871 0.666150 -2.841146 -9.064769 -21.045132 12.960655 -78.321702 -51.903557 65.725563 -9.999391 6.321387 19.318565 -0.052882 -48.992933 0.331575 -24.714930 70.012117 -23.870204 -2.498567 -4.086800 -1.147946 0.187459 -0.454354 0.449517 13.041379 -47.335348 -7.914797 25.680632 63.601126 26.162400 -15.671815 -15.700015 1.813449 0.065021 0.331305 -0.068767
-242.819404 60.410884 -74.981819 164.218475 -20.927158 3.259024 4.950354 20.081551 0.378258 0.585971 2.574642 -0.028595 0.959300 4.214238 -0.033190 4.006523 17.234193 0.325310 -2.842792 15.547539 0.939508 -3.160003 -9.325989 1.649552 16.507712 -1.047911 -11.310123 46.162026 -56.084557 -65.542566 51.858099 -71.090032 -64.264913 2.805237 -25.171013 -58.701341 -9.032734 0.529509 -2.907492 -9.037354 -20.769849 13.030024 -79.061784 -51.901758 66.464200 -10.060898 6.386839 19.298127 -0.008232 -49.165680 0.379752 -24.924149 70.067729 -24.195964 -2.616667 -4.096308 -1.129770 0.220817 -0.456620 0.481102 12.874798 -47.497185 -7.920372 25.834900 63.670444 26.250943 -15.578922 -15.788428 1.814829 0.040473 0.363258 -0.073690
-242.814465 60.376636 -75.021412 164.187562 -20.722841 3.290280 4.937683 20.100939 0.392815 0.575529 2.575800 -0.026870 0.942143 4.216156 -0.030549 3.937157 17.246444 0.328425 -2.681257 15.425299 0.890709 -3.019699 -9.503805 1.544999 16.552775 -1.273180 -11.703278 47.015739 -54.504498 -66.897436 28.830849 -73.265943 -42.184976 0.396842 -23.658488 -55.025534 -8.942832 0.358140 -2.941804 -9.063765 -20.528516 13.127587 -79.706381 -51.863073 67.134693 -10.133536 6.456441 19.243920 0.077413 -49.390379 0.396753 -25.053634 70.105142 -24.383593 -2.697363 -4.081412 -1.178193 0.277499 -0.428516 0.456317 12.807183 -47.716314 -7.934393 25.964671 63.747257 26.315829 -15.470954 -15.947195 1.821354 0.042889 0.461627 -0.078527
-242.812546 60.345932 -75.065482 164.254923 -20.487871 3.328156 4.817166 20.110936 0.345185 0.568558 2.575461 -0.027369 0.930681 4.215821 -0.031492 3.890225 17.251659 0.319168 -2.563336 15.272597 0.872427 -2.888464 -9.668754 1.497457 16.553244 -1.526829 -12.105529 47.680406 -52.587864 -67.920219 1.324109 -73.074302 -15.904035 -1.913578 -20.589929 -50.509638 -8.929108 0.296591 -2.906282 -9.079539 -20.465639 13.221609 -80.253185 -51.794234 67.720676 -10.210267 6.533692 19.163982 0.119531 -49.671350 0.422685 -25.362824 70.169979 -24.841796 -2.783306 -4.088802 -1.132354 0.297048 -0.417453 0.447994 12.758195 -47.948840 -8.041885 26.067861 63.787456 26.365198 -15.430354 -16.019627 1.836231 0.048538 0.505499 -0.077313
-242.801412 60.325778 -75.122395 164.247614 -20.290552 3.378724 4.783116 20.172288 0.307327 0.565038 2.572174 -0.029397 0.924976 4.210757 -0.034909 3.867636 17.245401 0.302232 -2.468917 15.125514 0.886618 -2.790264 -9.826088 1.489743 16.545401 -1.781577 -12.497721 47.978735 -50.691604 -68.481830 -21.566196 -70.311055 5.724500 -4.069994 -15.907705 -45.756844 -8.932159 0.179374 -2.936510 -9.173361 -20.378698 13.411764 -80.692023 -51.707317 68.201883 -10.280860 6.617721 19.069699 0.191848 -49.907654 0.474689 -25.689600 70.235706 -25.318909 -2.834142 -4.078586 -1.079643 0.295566 -0.436612 0.444678 12.838725 -48.137412 -8.158630 26.016656 63.906271 26.342894 -15.412807 -16.123145 1.837973 0.051160 0.531156 -0.066346
-242.796049 60.311753 -75.175094 164.274119 -20.013683 3.462590 4.730031 20.152493 0.212916 0.564428 2.566522 -0.032632 0.924011 4.201934 -0.040222 3.865390 17.229842 0.279473 -2.396762 14.995911 0.925238 -2.721844 -9.963575 1.513191 16.543216 -2.006366 -12.866247 47.824451 -49.242213 -68.556742 -35.733578 -66.347292 18.816060 -6.268400 -10.112073 -41.167961 -8.958138 0.065739 -2.982343 -9.323195 -20.321266 13.648027 -81.010195 -51.618062 68.562289 -10.339102 6.704223 18.970921 0.274172 -50.213372 0.434548 -25.952285 70.290914 -25.703955 -2.868256 -4.066691 -1.054114 0.300487 -0.463430 0.458213 12.884186 -48.379575 -8.331789 26.082244 63.951020 26.375032 -15.397429 -16.205857 1.850198 0.003968 0.565876 -0.078904
-242.793448 60.309090 -75.233124 164.303828 -19.726651 3.587051 4.694278 20.110826 0.074660 0.566030 2.560361 -0.036927 0.926618 4.192367 -0.047238 3.877244 17.211042 0.251170 -2.342818 14.890709 0.984537 -2.677956 -10.074244 1.562772 16.526202 -2.190388 -13.182150 47.252818 -48.479650 -68.225503 -43.162089 -62.479903 25.588604 -8.289377 -3.975434 -37.191626 -9.009890 -0.017785 -3.023433 -9.506388 -20.317426 13.908088 -81.207284 -51.541790 68.793773 -10.384175 6.785616 18.879358 0.396623 -50.520122 0.325269 -26.197891 70.346352 -26.069208 -2.911541 -4.071641 -1.002294 0.318098 -0.510665 0.480002 13.038049 -48.559990 -8.633022 26.118034 63.913174 26.410161 -15.315882 -16.342109 1.865693 -0.022972 0.663408 -0.099687
-242.769264 60.325147 -75.313986 164.208806 -19.575993 3.680143 4.831048 20.184974 0.027715 0.568706 2.555737 -0.042137 0.930957 4.185139 -0.055749 3.894220 17.195801 0.217259 -2.299612 14.812037 1.059059 -2.649349 -10.156365 1.630898 16.480417 -2.348073 -13.402318 46.332943 -48.343394 -67.608185 -46.270143 -59.234588 28.714343 -9.539057 1.350712 -34.533141 -9.066673 -0.082900 -3.050600 -9.711686 -20.353936 14.173059 -81.298061 -51.494615 68.904684 -10.414632 6.857784 18.805264 0.534248 -50.675283 0.327769 -26.436474 70.401159 -26.419137 -2.923299 -4.030372 -0.946017 0.296480 -0.503464 0.380390 13.279834 -48.636776 -8.822207 26.103435 64.029323 26.476600 -15.205903 -16.524551 1.864138 -0.014392 0.686753 -0.104891
-242.747912 60.349857 -75.394601 164.210371 -19.401759 3.767145 4.892195 20.210644 -0.050329 0.570777 2.554247 -0.048058 0.934287 4.182726 -0.065437 3.904143 17.190155 0.177980 -2.255743 14.753339 1.139879 -2.621630 -10.217423 1.705529 16.414675 -2.490582 -13.514737 45.147217 -48.524424 -66.848890 -46.463122 -56.880982 29.651754 -9.773932 5.316913 -33.731864 -9.103752 -0.148527 -3.065392 -9.925265 -20.409451 14.429916 -81.311246 -51.490328 68.920411 -10.433815 6.927459 18.748136 0.622977 -50.857256 0.263760 -26.642158 70.465801 -26.719402 -2.916116 -3.921017 -0.950846 0.261591 -0.599117 0.373285 13.505537 -48.720754 -9.078000 26.067196 64.097414 26.519740 -15.147534 -16.672040 1.894837 -0.019190 0.714172 -0.112015
-242.731740 60.381488 -75.474803 164.268572 -19.204831 3.871406 4.906997 20.199604 -0.170806 0.571441 2.556878 -0.054246 0.935231 4.186758 -0.075549 3.900981 17.197753 0.135910 -2.203653 14.698226 1.222193 -2.585564 -10.274852 1.779861 16.324920 -2.593742 -13.561127 43.771639 -48.724202 -66.084035 -44.640296 -55.877000 29.022976 -9.164087 7.947151 -34.317436 -9.111918 -0.235569 -3.074325 -10.130819 -20.466348 14.669786 -81.270108 -51.535310 68.859027 -10.448411 6.999688 18.696886 0.725585 -51.051841 0.096898 -26.767428 70.542287 -26.914442 -2.890561 -3.848804 -0.922883 0.206598 -0.682209 0.346647 13.750876 -48.808918 -9.401846 26.002968 64.135171 26.544354 -15.207226 -16.815447 1.936973 -0.075883 0.750708 -0.134659
-242.709309 60.418579 -75.555817 164.345630 -19.014984 3.937852 4.934793 20.186959 -0.258032 0.571064 2.563853 -0.060334 0.934283 4.197724 -0.085536 3.886889 17.219140 0.093822 -2.143851 14.629908 1.308725 -2.542331 -10.346095 1.856853 16.180159 -2.624493 -13.586918 42.305828 -48.774734 -65.407049 -41.338294 -56.691327 26.979939 -7.907782 8.817755 -34.913185 -9.099249 -0.353311 -3.081387 -10.319903 -20.518351 14.886058 -81.186244 -51.625804 68.733133 -10.457972 7.066368 18.641554 0.738245 -51.240039 0.034430 -26.934178 70.614175 -27.178849 -2.919505 -3.784730 -0.872773 0.200426 -0.763280 0.307334 13.951977 -48.894776 -9.683059 25.945255 64.170372 26.575183 -15.205268 -16.968472 1.962155 -0.100682 0.781865 -0.139141
-242.687548 60.459359 -75.640014 164.451285 -18.840814 4.003531 4.952151 20.189893 -0.351763 0.569696 2.574318 -0.066065 0.931673 4.214163 -0.094973 3.863612 17.251431 0.053582 -2.080968 14.538977 1.402277 -2.497520 -10.440671 1.940506 15.933376 -2.560638 -13.607762 40.930347 -48.561300 -64.901306 -36.813164 -59.273162 23.693405 -6.162926 8.231808 -34.988761 -9.077268 -0.493447 -3.088095 -10.485068 -20.567105 15.069766 -81.077427 -51.753821 68.563658 -10.456353 7.119642 18.580130 0.740178 -51.405263 -0.058694 -27.060346 70.691037 -27.390896 -2.945030 -3.735708 -0.823464 0.190751 -0.836048 0.267012 14.131465 -48.965046 -9.963664 25.886702 64.206548 26.601755 -15.246446 -17.115244 1.978969 0.037009 0.798006 -0.100029
-242.658505 60.502016 -75.728351 164.611322 -18.704684 4.012699 4.947805 20.228102 -0.399879 0.566983 2.587010 -0.071122 0.926950 4.233952 -0.103246 3.830709 17.290872 0.017284 -2.020517 14.424001 1.501000 -2.456618 -10.559888 2.030230 15.559023 -2.389208 -13.615366 39.836107 -47.996341 -64.648031 -31.358260 -62.571841 19.484773 -4.116299 7.125883 -34.845266 -9.046683 -0.640624 -3.095628 -10.620220 -20.616239 15.209211 -80.967839 -51.914299 68.375571 -10.445244 7.158783 18.516767 0.646659 -51.521382 -0.062144 -27.242191 70.745955 -27.662912 -3.005158 -3.665573 -0.832299 0.210142 -0.935199 0.295056 14.196555 -49.014020 -10.159819 25.829432 64.247463 26.619571 -15.301407 -17.283563 1.998170 -0.092813 0.785600 -0.101977
